<svg fill="#323332" xmlns="http://www.w3.org/2000/svg" xmlns:xlink="http://www.w3.org/1999/xlink" version="1.1" x="0px" y="0px" viewBox="0 0 164 164" enable-background="new 0 0 164 164" xml:space="preserve"><g><path fill-rule="evenodd" clip-rule="evenodd" d="M39.535,87.019v43.03H6.952V92.231c-2.317,0-4.635,0-6.952,0   c10.282-11.151,20.563-22.302,30.846-33.453c3.041,3.042,6.082,6.083,9.123,9.125c-2.607,2.751-5.213,5.503-7.82,8.254   c-0.145,3.186-0.18,7.022-0.216,10.645C34.648,86.801,37.146,86.909,39.535,87.019L39.535,87.019z M124.146,87.019v43.03h32.583   V92.231c2.317,0,4.635,0,6.952,0c-10.282-11.151-20.563-22.302-30.846-33.453c-3.041,3.042-6.082,6.083-9.124,9.125   c2.607,2.751,5.214,5.503,7.821,8.254c0.144,3.186,0.181,7.022,0.216,10.645C129.032,86.801,126.535,86.909,124.146,87.019z"></path><path fill-rule="evenodd" clip-rule="evenodd" d="M48.147,130.049V82.551H34.389l47.451-48.28l21.713,22.093V43.807h16.779v29.629   l8.959,9.115h-13.758v47.498H48.147z"></path></g></svg>