<svg fill="#323332" xmlns="http://www.w3.org/2000/svg" data-name="Layer 1" viewBox="0 0 100 100" x="0px" y="0px"><title>151all</title><path d="M85.61,56.83a3,3,0,0,0-2.86-2.11H68l4-5.37A28.59,28.59,0,0,0,77.8,30.42C76.81,15.62,64.71,4,50.25,4S23.69,15.62,22.7,30.42a28.59,28.59,0,0,0,5.83,18.93l4,5.37H18.25a3,3,0,0,0-2.84,2L3.41,92a3,3,0,0,0,2.84,4h87.5a3,3,0,0,0,2.86-3.89ZM50,18.24A11.26,11.26,0,1,1,38.8,29.5,11.24,11.24,0,0,1,50,18.24ZM32.17,90H10.44L14.8,77.15H32.88ZM47.5,81.15V90H38.18L39,74.32a3,3,0,0,0-3-3.17H16.85L20.4,60.72H37L47.85,75.2a3,3,0,0,0,4.81,0L63.48,60.72H80.54l2,6.43H65.2v6H84.42l1.56,5H50.5A3,3,0,0,0,47.5,81.15Zm6,8.82V84.15H87.86L89.67,90Z"></path></svg>